# xmcd
#
# Track frame offsets: 
#        150
#        13896
#        28618
#        44881
#        60813
#        80707
#        100838
#        122779
#        145841
#        161469
#
# Disc length: 2411 seconds
#
# Revision: 0
# Processed by: cddbd v1.5.2PL0 Copyright (c) Steve Scherf et al.
# Submitted via: ExactAudioCopyFreeDBPlugin 1.0
#
DISCID=8209690a
DTITLE=David Vest - Devestatin' Rhythm
DYEAR=2016
DGENRE=blues
TTITLE0=West Coast Saturday Night
TTITLE1=Stop This Madness
TTITLE2=Staring Down The Barel Of The Blues
TTITLE3=Kingsnake
TTITLE4=We're All Sharecroppers Now
TTITLE5=The Blues Live On
TTITLE6=Biscuit Rollin'Baby
TTITLE7=Lost Highway
TTITLE8=Come Back To Bed
TTITLE9=Red Dirt Remedy
EXTD=
EXTT0=
EXTT1=
EXTT2=
EXTT3=
EXTT4=
EXTT5=
EXTT6=
EXTT7=
EXTT8=
EXTT9=
PLAYORDER=
